<?xml version="1.0" encoding="UTF-8"?>
<svg xmlns="http://www.w3.org/2000/svg" xmlns:xlink="http://www.w3.org/1999/xlink" width="100px" height="100px" viewBox="0 0 100 100" version="1.1">
<g id="surface1">
<path style=" stroke:none;fill-rule:nonzero;fill:rgb(90.980392%,91.764706%,92.941176%);fill-opacity:1;" d="M 54.167969 37.5 L 54.167969 12.5 L 87.5 12.5 L 87.5 37.5 Z M 12.5 54.167969 L 12.5 12.5 L 45.832031 12.5 L 45.832031 54.167969 Z M 54.167969 87.5 L 54.167969 45.832031 L 87.5 45.832031 L 87.5 87.5 Z M 12.5 87.5 L 12.5 62.5 L 45.832031 62.5 L 45.832031 87.5 Z M 20.832031 45.832031 L 37.5 45.832031 L 37.5 20.832031 L 20.832031 20.832031 Z M 62.5 79.167969 L 79.167969 79.167969 L 79.167969 54.167969 L 62.5 54.167969 Z M 62.5 29.167969 L 79.167969 29.167969 L 79.167969 20.832031 L 62.5 20.832031 Z M 20.832031 79.167969 L 37.5 79.167969 L 37.5 70.832031 L 20.832031 70.832031 Z M 37.5 45.832031 Z M 62.5 29.167969 Z M 62.5 54.167969 Z M 37.5 70.832031 Z M 37.5 70.832031 "/>
</g>
</svg>
